<svg xmlns="http://www.w3.org/2000/svg" viewBox="0 0 24 24" role="img" aria-label="GitHub">
  <path fill="currentColor" d="M12 .5C5.65.5.5 5.65.5 12c0 5.08 3.29 9.39 7.86 10.91.58.11.79-.25.79-.55v-2.16c-3.2.7-3.87-1.36-3.87-1.36-.52-1.32-1.28-1.67-1.28-1.67-1.05-.72.08-.7.08-.7 1.16.08 1.77 1.19 1.77 1.19 1.03 1.77 2.7 1.26 3.36.96.1-.75.4-1.26.73-1.55-2.55-.29-5.24-1.27-5.24-5.66 0-1.25.45-2.27 1.18-3.07-.12-.29-.51-1.46.11-3.04 0 0 .97-.31 3.18 1.17.92-.26 1.91-.39 2.89-.39.98 0 1.97.13 2.89.39 2.2-1.48 3.17-1.17 3.17-1.17.63 1.58.23 2.75.11 3.04.74.8 1.18 1.82 1.18 3.07 0 4.4-2.69 5.36-5.25 5.65.41.35.78 1.05.78 2.12v3.14c0 .31.21.67.8.55C20.21 21.39 23.5 17.08 23.5 12 23.5 5.65 18.35.5 12 .5z"></path>
</svg>